<?xml version="1.0" encoding="UTF-8" standalone="no"?>
<!-- Created with Inkscape (http://www.inkscape.org/) -->

<svg
   width="18.565292mm"
   height="22.173969mm"
   viewBox="0 0 18.565292 22.173969"
   version="1.1"
   id="svg1"
   xml:space="preserve"
   xmlns="http://www.w3.org/2000/svg"
   xmlns:svg="http://www.w3.org/2000/svg"><defs
     id="defs1"><clipPath
       clipPathUnits="userSpaceOnUse"
       id="clipPath6181"><path
         d="M 0,942.06 H 1586.706 V 0 H 0 Z"
         transform="translate(-1407.1254,-189.72143)"
         id="path6181" /></clipPath><clipPath
       clipPathUnits="userSpaceOnUse"
       id="clipPath6183"><path
         d="M 0,942.06 H 1586.706 V 0 H 0 Z"
         transform="translate(-1402.3735,-187.23293)"
         id="path6183" /></clipPath><clipPath
       clipPathUnits="userSpaceOnUse"
       id="clipPath6185"><path
         d="M 0,942.06 H 1586.706 V 0 H 0 Z"
         transform="translate(-1398.5268,-183.9135)"
         id="path6185" /></clipPath><clipPath
       clipPathUnits="userSpaceOnUse"
       id="clipPath6187"><path
         d="M 0,942.06 H 1586.706 V 0 H 0 Z"
         transform="translate(-1393.7751,-181.04798)"
         id="path6187" /></clipPath><clipPath
       clipPathUnits="userSpaceOnUse"
       id="clipPath6189"><path
         d="M 0,942.06 H 1586.706 V 0 H 0 Z"
         transform="translate(-1389.4006,-178.40798)"
         id="path6189" /></clipPath><clipPath
       clipPathUnits="userSpaceOnUse"
       id="clipPath6191"><path
         d="M 0,942.06 H 1586.706 V 0 H 0 Z"
         transform="translate(-1385.2516,-175.3905)"
         id="path6191" /></clipPath><clipPath
       clipPathUnits="userSpaceOnUse"
       id="clipPath6193"><path
         d="M 0,942.06 H 1586.706 V 0 H 0 Z"
         transform="translate(-1409.1324,-158.72708)"
         id="path6193" /></clipPath></defs><g
     id="layer1"
     transform="translate(-140.79376,-207.69793)"><path
       id="path6180"
       d="m 0,0 2.202,1.355 25.751,-15.077 0.342,-30.072 -1.886,-1.886 -0.15,30.699 z"
       style="fill:#ffffff;fill-opacity:1;fill-rule:nonzero;stroke:none"
       transform="matrix(0.35277776,0,0,-0.35277776,149.37719,208.17593)"
       clip-path="url(#clipPath6181)" /><path
       id="path6182"
       d="m 0,0 2.203,1.355 25.75,-15.077 0.041,-30.676 -1.962,-1.66 0.076,30.548 z"
       style="fill:#ffffff;fill-opacity:1;fill-rule:nonzero;stroke:none"
       transform="matrix(0.35277776,0,0,-0.35277776,147.70081,209.05382)"
       clip-path="url(#clipPath6183)" /><path
       id="path6184"
       d="m 0,0 2.202,1.356 25.751,-15.078 0.041,-30.675 -1.961,-1.661 0.075,30.548 z"
       style="fill:#ffffff;fill-opacity:1;fill-rule:nonzero;stroke:none"
       transform="matrix(0.35277776,0,0,-0.35277776,146.34377,210.22484)"
       clip-path="url(#clipPath6185)" /><path
       id="path6186"
       d="m 0,0 2.202,1.355 25.751,-15.078 0.041,-30.676 -1.961,-1.658 0.075,30.547 z"
       style="fill:#ffffff;fill-opacity:1;fill-rule:nonzero;stroke:none"
       transform="matrix(0.35277776,0,0,-0.35277776,144.66747,211.23573)"
       clip-path="url(#clipPath6187)" /><path
       id="path6188"
       d="m 0,0 2.202,1.355 25.751,-15.077 0.04,-30.677 -1.961,-1.659 0.076,30.548 z"
       style="fill:#ffffff;fill-opacity:1;fill-rule:nonzero;stroke:none"
       transform="matrix(0.35277776,0,0,-0.35277776,143.12426,212.16707)"
       clip-path="url(#clipPath6189)" /><path
       id="path6190"
       d="m 0,0 2.203,1.355 25.751,-15.077 0.04,-30.675 -1.962,-1.66 0.076,30.548 z"
       style="fill:#ffffff;fill-opacity:1;fill-rule:nonzero;stroke:none"
       transform="matrix(0.35277776,0,0,-0.35277776,141.66059,213.23157)"
       clip-path="url(#clipPath6191)" /><path
       id="path6192"
       d="M 0,0 -26.08,15.157 -26.338,-15.15 0.04,-30.506 Z"
       style="fill:#ffffff;fill-opacity:1;fill-rule:nonzero;stroke:none"
       transform="matrix(0.35277776,0,0,-0.35277776,150.08521,219.11005)"
       clip-path="url(#clipPath6193)" /></g></svg>
